/* XPM */
static char *_c8cc1c723db4701aa477eb451e43b64APs4mp91yxwVlfSS[] = {
/* columns rows colors chars-per-pixel */
"64 64 5 1 ",
"  c #110B0B",
". c #271616",
"X c #452A26",
"o c #664526",
"O c #79662E",
/* pixels */
"  ..XXooooOOOOOOOOOOOOOOOOooooXX  XXooooOOOOOOOOOOOOOOOOOOooooXX",
"  ..XXooooOOOOOOOOOOOOOOOOooooXX  XXooooOOOOOOOOOOOOOOOOOOooooXX",
"..XXooooOOOOOOOOOOOOOOooooooooXX..ooOOOOOOOOOOOOOOOOooooooooooXX",
"..XXooooOOOOOOOOOOOOOOooooooooXX..ooOOOOOOOOOOOOOOOOooooooooooXX",
"..ooooooooooooooooooooooooooooXX..ooooooooooooooooooooooooooooXX",
"..ooooooooooooooooooooooooooooXX..ooooooooooooooooooooooooooooXX",
"..ooooooooooooooooooooooooooooXX..oooooooooooooooooooooooooooo..",
"..ooooooooooooooooooooooooooooXX..oooooooooooooooooooooooooooo..",
"  XXooooooooooooooooooooooooXXXX  ooooooooooooooooooooooooooXX..",
"  XXooooooooooooooooooooooooXXXX  ooooooooooooooooooooooooooXX..",
"  ..XXXXXXXXooooooooooooooXXXX..  ooooooooooooooooooooooooXX....",
"  ..XXXXXXXXooooooooooooooXXXX..  ooooooooooooooooooooooooXX....",
"    ....XXXXXXXXXXXXXXXX..        XXooooooooooooooooooXX....    ",
"    ....XXXXXXXXXXXXXXXX..        XXooooooooooooooooooXX....    ",
"      ......                        ........      ........      ",
"      ......                        ........      ........      ",
"OOOOOOOOOOoo..  ooOOOOOOOOOOOOOOOOOOOOOOoooo..  XXooooooOOOOOOOO",
"OOOOOOOOOOoo..  ooOOOOOOOOOOOOOOOOOOOOOOoooo..  XXooooooOOOOOOOO",
"OOOOoooooooooo..ooooOOOOOOOOOOOOOOooooooooXXXX..ooOOOOOOOOOOOOOO",
"OOOOoooooooooo..ooooOOOOOOOOOOOOOOooooooooXXXX..ooOOOOOOOOOOOOOO",
"oooooooooooooo..ooooooooooooooooooooooooooXXXX..oooooooooooooooo",
"oooooooooooooo..ooooooooooooooooooooooooooXXXX..oooooooooooooooo",
"oooooooooooooo..ooooooooooooooooooooooooooXXXX..oooooooooooooooo",
"oooooooooooooo..ooooooooooooooooooooooooooXXXX..oooooooooooooooo",
"ooooooooooooXX..ooooooooooooooXX..XXooooXXXX....ooooooooooooooXX",
"ooooooooooooXX..ooooooooooooooXX..XXooooXXXX....ooooooooooooooXX",
"ooooooooooXXXX..ooooooooooooXX..  ..XXXX........XXooooooooooXX..",
"ooooooooooXXXX..ooooooooooooXX..  ..XXXX........XXooooooooooXX..",
"XXXXXXXXXXXX..  ..XXXXXXXXXXXX      ..........  XXXXXXXXXX......",
"XXXXXXXXXXXX..  ..XXXXXXXXXXXX      ..........  XXXXXXXXXX......",
"    ........        ......            ......      ............  ",
"    ........        ......            ......      ............  ",
"  OOOOOOOOOOOOOOOOOOOOOOOOooooXX  XXooOOOOOOOOOOOOOOOOOOOOOOooXX",
"  OOOOOOOOOOOOOOOOOOOOOOOOooooXX  XXooOOOOOOOOOOOOOOOOOOOOOOooXX",
"..ooooOOOOOOOOOOOOooooooooooooXX..ooOOOOOOOOOOOOOOOOoooooooooooo",
"..ooooOOOOOOOOOOOOooooooooooooXX..ooOOOOOOOOOOOOOOOOoooooooooooo",
"..ooooooooooooooooooooooooooooXX..oooooooooooooooooooooooooooooo",
"..ooooooooooooooooooooooooooooXX..oooooooooooooooooooooooooooooo",
"..XXoooooooooooooooooooooooooo....ooooooooooooooooooooooooooooXX",
"..XXoooooooooooooooooooooooooo....ooooooooooooooooooooooooooooXX",
"..XXXXooooooooooXXoooooooooooo....ooooooooooooooooooooooooXX....",
"..XXXXooooooooooXXoooooooooooo....ooooooooooooooooooooooooXX....",
"..XXXXXXXXXXXXXX..XXooooooooXX..  ooooooooooooooooooXX..........",
"..XXXXXXXXXXXXXX..XXooooooooXX..  ooooooooooooooooooXX..........",
"  ..XXXXXX............XXXX......  XXooooooooooooooXX............",
"  ..XXXXXX............XXXX......  XXooooooooooooooXX............",
"    ........      ............      ........      ............  ",
"    ........      ............      ........      ............  ",
"OOOOOOooooooXX  XXXXooOOOOOOOOOOOOOOOOOOooooXX  XXooooOOOOOOOOOO",
"OOOOOOooooooXX  XXXXooOOOOOOOOOOOOOOOOOOooooXX  XXooooOOOOOOOOOO",
"oooooooooooooo..XXooOOOOOOOOOOoooooooooooooooo..ooooOOOOOOOOOOoo",
"oooooooooooooo..XXooOOOOOOOOOOoooooooooooooooo..ooooOOOOOOOOOOoo",
"oooooooooooooo..XXoooooooooooooooooooooooooooo..oooooooooooooooo",
"oooooooooooooo..XXoooooooooooooooooooooooooooo..oooooooooooooooo",
"oooooooooooooo..XXoooooooooooooooooooooooooooo  oooooooooooooooo",
"oooooooooooooo..XXoooooooooooooooooooooooooooo  oooooooooooooooo",
"ooooooooooooXX  ..XXooooooooooooooooooooooooXX    ....XXoooooooo",
"ooooooooooooXX  ..XXooooooooooooooooooooooooXX    ....XXoooooooo",
"XXooooooooXXXX  ....XXoooooooooooooooooooooo..    ......XXoooooo",
"XXooooooooXXXX  ....XXoooooooooooooooooooooo..    ......XXoooooo",
"..XXXXXXXXXX..    ......XXXXXXXXXXXXXXXXXX....      ......XXXXXX",
"..XXXXXXXXXX..    ......XXXXXXXXXXXXXXXXXX....      ......XXXXXX",
"    ........          ........          ....            ......  ",
"    ........          ........          ....            ......  "
};
