/* XPM */
static char *fce5a5db38964fdbe856de6d6ea4b6574G0kexIp0U7ZXI7B[] = {
/* columns rows colors chars-per-pixel */
"64 64 6 1 ",
"  c #622222",
". c #6C6C6C",
"X c #932A20",
"o c #B35D3D",
"O c gray56",
"+ c gray81",
/* pixels */
"OO  XXooooooXXooooXXooXXXX  XX  OO  XXooooooooooooXXooooXX  XX  ",
"OO  XXooooooXXooooXXooXXXX  XX  OO  XXooooooooooooXXooooXX  XX  ",
"++  XXXXXXXXXXXXXXXXXXXXXXXX    ++  XXXXXXXXXXXXXXXXXXXXXXXX    ",
"++  XXXXXXXXXXXXXXXXXXXXXXXX    ++  XXXXXXXXXXXXXXXXXXXXXXXX    ",
"++  XXXXXXXXXXXXXXXXXXXXXX  XX  ++  XXXXXXXXXXXXXXXXXXXXXX  XX  ",
"++  XXXXXXXXXXXXXXXXXXXXXX  XX  ++  XXXXXXXXXXXXXXXXXXXXXX  XX  ",
"++  XXXXXXXXXXXXXXXXXXXX  XX    ++  XXXXXXXXXXXXXXXXXXXX  XX    ",
"++  XXXXXXXXXXXXXXXXXXXX  XX    ++  XXXXXXXXXXXXXXXXXXXX  XX    ",
"++  XXXXXXXXXXXXXX  XX  XX  XX  ++  XXXXXXXXXXXXXX  XX          ",
"++  XXXXXXXXXXXXXX  XX  XX  XX  ++  XXXXXXXXXXXXXX  XX          ",
"++    XX  XX  XX  XX  XX  XX    ++    XX  XX  XX  XX            ",
"++    XX  XX  XX  XX  XX  XX    ++    XX  XX  XX  XX            ",
"OO  XX  XX  XX  XX  XX  XX  XX  OO  XX  XX  XX  XX  XX          ",
"OO  XX  XX  XX  XX  XX  XX  XX  OO  XX  XX  XX  XX  XX          ",
"OOOO++++++++OOOOOOOOOOOOOOOO........OO++++++OO..OO++++++OOOOOOOO",
"OOOO++++++++OOOOOOOOOOOOOOOO........OO++++++OO..OO++++++OOOOOOOO",
"XXooXXXX  XX  OO  XXooooooooooXXooooXXXX  XX  OO  XXXXoooooooooo",
"XXooXXXX  XX  OO  XXooooooooooXXooooXXXX  XX  OO  XXXXoooooooooo",
"XXXXXXXXXX    ++  XXXXXXXXXXXXXXXXXXXXXXXX    ++  XXXXXXXXXXXXXX",
"XXXXXXXXXX    ++  XXXXXXXXXXXXXXXXXXXXXXXX    ++  XXXXXXXXXXXXXX",
"XXXXXXXX  XX  ++  XXXXXXXXXXXXXXXXXXXXXX  XX  ++  XXXXXXXXXXXXXX",
"XXXXXXXX  XX  ++  XXXXXXXXXXXXXXXXXXXXXX  XX  ++  XXXXXXXXXXXXXX",
"XXXXXX  XX    ++  XXXXXXXXXXXXXXXXXXXX  XX    ++  XXXXXXXXXXXXXX",
"XXXXXX  XX    ++  XXXXXXXXXXXXXXXXXXXX  XX    ++  XXXXXXXXXXXXXX",
"  XX          ++  XXXXXXXXXXXXXX  XX  XX  XX  ++  XXXXXXXXXXXXXX",
"  XX          ++  XXXXXXXXXXXXXX  XX  XX  XX  ++  XXXXXXXXXXXXXX",
"XX            ++    XX  XX  XX  XX  XX  XX    ++    XX  XX  XX  ",
"XX            ++    XX  XX  XX  XX  XX  XX    ++    XX  XX  XX  ",
"              OO  XX  XX  XX  XX  XX  XX  XX  OO  XX  XX  XX  XX",
"              OO  XX  XX  XX  XX  XX  XX  XX  OO  XX  XX  XX  XX",
"OOOO++++OOOO........OOOO++++++OO............OOOOOOOO++++++++++OO",
"OOOO++++OOOO........OOOO++++++OO............OOOOOOOO++++++++++OO",
"OO  XXooooooXXooooXXooXXXX  XX  OO  ooooooXXooXXooXXXXXXXX  XX  ",
"OO  XXooooooXXooooXXooXXXX  XX  OO  ooooooXXooXXooXXXXXXXX  XX  ",
"++  XXXXXXXXXXXXXXXXXXXXXXXX    ++  XXXXXXXXXXXXXXXXXXXXXXXX    ",
"++  XXXXXXXXXXXXXXXXXXXXXXXX    ++  XXXXXXXXXXXXXXXXXXXXXXXX    ",
"++  XXXXXXXXXXXXXXXXXXXXXX  XX  ++  XXXXXXXXXXXXXXXXXXXXXX  XX  ",
"++  XXXXXXXXXXXXXXXXXXXXXX  XX  ++  XXXXXXXXXXXXXXXXXXXXXX  XX  ",
"++  XXXXXXXXXXXXXXXXXXXX  XX    ++  XXXXXXXXXXXXXXXXXXXX  XX    ",
"++  XXXXXXXXXXXXXXXXXXXX  XX    ++  XXXXXXXXXXXXXXXXXXXX  XX    ",
"++  XXXXXXXXXXXXXX  XX  XX  XX  ++  XXXXXXXXXXXXXX  XX  XX  XX  ",
"++  XXXXXXXXXXXXXX  XX  XX  XX  ++  XXXXXXXXXXXXXX  XX  XX  XX  ",
"++    XX  XX  XX  XX  XX  XX    ++    XX  XX  XX  XX  XX  XX    ",
"++    XX  XX  XX  XX  XX  XX    ++    XX  XX  XX  XX  XX  XX    ",
"OO  XX  XX  XX  XX  XX  XX  XX  OO  XX  XX  XX  XX  XX  XX  XX  ",
"OO  XX  XX  XX  XX  XX  XX  XX  OO  XX  XX  XX  XX  XX  XX  XX  ",
"OOOO++++++++OO..OO++++OOOOOO......OO++++++++OO......OO..OO++++OO",
"OOOO++++++++OO..OO++++OOOOOO......OO++++++++OO......OO..OO++++OO",
"XXXXXXXX  XX  OO  XXooooooooooXXooXXXXXX  XX  OO  XXooooooooXXoo",
"XXXXXXXX  XX  OO  XXooooooooooXXooXXXXXX  XX  OO  XXooooooooXXoo",
"XXXXXXXXXX    ++  XXXXXXXXXXXXXXXXXXXXXXXX    ++  XXXXXXXXXXXXXX",
"XXXXXXXXXX    ++  XXXXXXXXXXXXXXXXXXXXXXXX    ++  XXXXXXXXXXXXXX",
"XXXXXXXX  XX  ++  XXXXXXXXXXXXXXXXXXXXXX  XX  ++  XXXXXXXXXXXXXX",
"XXXXXXXX  XX  ++  XXXXXXXXXXXXXXXXXXXXXX  XX  ++  XXXXXXXXXXXXXX",
"XXXXXX  XX    ++  XXXXXXXXXXXXXXXXXXXX        ++  XXXXXXXXXXXXXX",
"XXXXXX  XX    ++  XXXXXXXXXXXXXXXXXXXX        ++  XXXXXXXXXXXXXX",
"  XX  XX  XX  ++  XXXXXXXXXXXXXX  XX          ++  XXXXXXXXXXXXXX",
"  XX  XX  XX  ++  XXXXXXXXXXXXXX  XX          ++  XXXXXXXXXXXXXX",
"XX  XX  XX    ++    XX  XX  XX  XX  XX        ++    XX  XX  XX  ",
"XX  XX  XX    ++    XX  XX  XX  XX  XX        ++    XX  XX  XX  ",
"  XX  XX  XX  OO  XX  XX  XX  XX  XX          OO  XX  XX  XX  XX",
"  XX  XX  XX  OO  XX  XX  XX  XX  XX          OO  XX  XX  XX  XX",
"OOOO++++++++OOOOOO++++++++++++OOOOOO++++OO........OOOO++++++++OO",
"OOOO++++++++OOOOOO++++++++++++OOOOOO++++OO........OOOO++++++++OO"
};
