/* XPM */
static char *f1c3eb9bde4a4fecb5321bc9ee6a22camSJ5aKI2fm69hroZ[] = {
/* columns rows colors chars-per-pixel */
"64 64 6 1 ",
"  c #170C1C",
". c #271936",
"X c #281E5C",
"o c #434670",
"O c #546D89",
"+ c #739DAE",
/* pixels */
"  XXXXooooOOOO++++++OOOOooooXXXX  XXXXooooOOOO++++++OOOOooooXXXX",
"  XXXXooooOOOO++++++OOOOooooXXXX  XXXXooooOOOO++++++OOOOooooXXXX",
"..XXooOO++++++++++++++++++OOooXX..XXooOO++++++++++++++++++OOooXX",
"..XXooOO++++++++++++++++++OOooXX..XXooOO++++++++++++++++++OOooXX",
"..ooOOooooooooooooooooooooooOOoo..ooOOooooooooooooooooooooooOOoo",
"..ooOOooooooooooooooooooooooOOoo..ooOOooooooooooooooooooooooOOoo",
"..oooooooooooooooooooooooooooooo..oooooooooooooooooooooooooooooo",
"..oooooooooooooooooooooooooooooo..oooooooooooooooooooooooooooooo",
"..oooooooooooooooooooooooooooooo..oooooooooooooooooooooooooooooo",
"..oooooooooooooooooooooooooooooo..oooooooooooooooooooooooooooooo",
"..XXooooooooooooooooooooooooooXX..XXooooooooooooooooooooooooooXX",
"..XXooooooooooooooooooooooooooXX..XXooooooooooooooooooooooooooXX",
"  XXXXooooooooooooooooooooooXXXX  XXXXooooooooooooooooooooooXXXX",
"  XXXXooooooooooooooooooooooXXXX  XXXXooooooooooooooooooooooXXXX",
"    ........      ............      ........      ............  ",
"    ........      ............      ........      ............  ",
"++OOOOooooXXXX  XXXXooooOOOO++++++OOOOooooXXXX  XXXXooooOOOO++++",
"++OOOOooooXXXX  XXXXooooOOOO++++++OOOOooooXXXX  XXXXooooOOOO++++",
"++++++++OOooXX..XXooOO++++++++++++++++++OOooXX..XXooOO++++++++++",
"++++++++OOooXX..XXooOO++++++++++++++++++OOooXX..XXooOO++++++++++",
"ooooooooooOOoo..ooOOooooooooooooooooooooooOOoo..ooOOoooooooooooo",
"ooooooooooOOoo..ooOOooooooooooooooooooooooOOoo..ooOOoooooooooooo",
"oooooooooooooo..oooooooooooooooooooooooooooooo..oooooooooooooooo",
"oooooooooooooo..oooooooooooooooooooooooooooooo..oooooooooooooooo",
"oooooooooooooo..oooooooooooooooooooooooooooooo..oooooooooooooooo",
"oooooooooooooo..oooooooooooooooooooooooooooooo..oooooooooooooooo",
"ooooooooooooXX..XXooooooooooooooooooooooooooXX..XXoooooooooooooo",
"ooooooooooooXX..XXooooooooooooooooooooooooooXX..XXoooooooooooooo",
"ooooooooooXXXX  XXXXooooooooooooooooooooooXXXX  XXXXoooooooooooo",
"ooooooooooXXXX  XXXXooooooooooooooooooooooXXXX  XXXXoooooooooooo",
"    ........      ............      ........      ............  ",
"    ........      ............      ........      ............  ",
"  XXXXooooOOOO++++++OOOOooooXXXX  XXXXooooOOOO++++++OOOOooooXXXX",
"  XXXXooooOOOO++++++OOOOooooXXXX  XXXXooooOOOO++++++OOOOooooXXXX",
"..XXooOO++++++++++++++++++OOooXX..XXooOO++++++++++++++++++OOooXX",
"..XXooOO++++++++++++++++++OOooXX..XXooOO++++++++++++++++++OOooXX",
"..ooOOooooooooooooooooooooooOOoo..ooOOooooooooooooooooooooooOOoo",
"..ooOOooooooooooooooooooooooOOoo..ooOOooooooooooooooooooooooOOoo",
"..oooooooooooooooooooooooooooooo..oooooooooooooooooooooooooooooo",
"..oooooooooooooooooooooooooooooo..oooooooooooooooooooooooooooooo",
"..oooooooooooooooooooooooooooooo..oooooooooooooooooooooooooooooo",
"..oooooooooooooooooooooooooooooo..oooooooooooooooooooooooooooooo",
"..XXooooooooooooooooooooooooooXX..XXooooooooooooooooooooooooooXX",
"..XXooooooooooooooooooooooooooXX..XXooooooooooooooooooooooooooXX",
"  XXXXooooooooooooooooooooooXXXX  XXXXooooooooooooooooooooooXXXX",
"  XXXXooooooooooooooooooooooXXXX  XXXXooooooooooooooooooooooXXXX",
"    ........      ............      ........      ............  ",
"    ........      ............      ........      ............  ",
"++OOOOooooXXXX  XXXXooooOOOO++++++OOOOooooXXXX  XXXXooooOOOO++++",
"++OOOOooooXXXX  XXXXooooOOOO++++++OOOOooooXXXX  XXXXooooOOOO++++",
"++++++++OOooXX..XXooOO++++++++++++++++++OOooXX..XXooOO++++++++++",
"++++++++OOooXX..XXooOO++++++++++++++++++OOooXX..XXooOO++++++++++",
"ooooooooooOOoo..ooOOooooooooooooooooooooooOOoo..ooOOoooooooooooo",
"ooooooooooOOoo..ooOOooooooooooooooooooooooOOoo..ooOOoooooooooooo",
"oooooooooooooo..oooooooooooooooooooooooooooooo..oooooooooooooooo",
"oooooooooooooo..oooooooooooooooooooooooooooooo..oooooooooooooooo",
"oooooooooooooo..oooooooooooooooooooooooooooooo..oooooooooooooooo",
"oooooooooooooo..oooooooooooooooooooooooooooooo..oooooooooooooooo",
"ooooooooooooXX..XXooooooooooooooooooooooooooXX..XXoooooooooooooo",
"ooooooooooooXX..XXooooooooooooooooooooooooooXX..XXoooooooooooooo",
"ooooooooooXXXX  XXXXooooooooooooooooooooooXXXX  XXXXoooooooooooo",
"ooooooooooXXXX  XXXXooooooooooooooooooooooXXXX  XXXXoooooooooooo",
"    ........      ............      ........      ............  ",
"    ........      ............      ........      ............  "
};
