/* XPM */
static char *_eae5feb58514a7b96cbf17c57722921iAlWhzj0DsngRnlu[] = {
/* columns rows colors chars-per-pixel */
"64 64 4 1 ",
"  c #291916",
". c #482620",
"X c #72473F",
"o c #8E716B",
/* pixels */
"ooXXXXXXXXXXXXXXXXXXXXXXXXXX  XXXXXXXXXXXXXXXXXXXXXXXXXXXXXXXX  ",
"ooXXXXXXXXXXXXXXXXXXXXXXXXXX  XXXXXXXXXXXXXXXXXXXXXXXXXXXXXXXX  ",
"ooXXXXXXXXXXXXXXXXXXXXXXXXXX..XXXXXXXXXXXXXXXXXXXXXXXXXXXXXXXX..",
"ooXXXXXXXXXXXXXXXXXXXXXXXXXX..XXXXXXXXXXXXXXXXXXXXXXXXXXXXXXXX..",
"ooXXXXXXXXXXXXXXXXXXXXXXXXXX..XXXXXXXXXXXXXXXXXXXXXXXXXXXXXXXX  ",
"ooXXXXXXXXXXXXXXXXXXXXXXXXXX..XXXXXXXXXXXXXXXXXXXXXXXXXXXXXXXX  ",
"  ..........      ..........................      ..........    ",
"  ..........      ..........................      ..........    ",
"XXXXXXXXXXXXXX  ooXXXXXXXXXXXXXXXXXXXXXXXXXXXX  ooXXXXXXXXXXXXXX",
"XXXXXXXXXXXXXX  ooXXXXXXXXXXXXXXXXXXXXXXXXXXXX  ooXXXXXXXXXXXXXX",
"XXXXXXXXXXXXXX..ooXXXXXXXXXXXXXXXXXXXXXXXXXXXX..ooXXXXXXXXXXXXXX",
"XXXXXXXXXXXXXX..ooXXXXXXXXXXXXXXXXXXXXXXXXXXXX..ooXXXXXXXXXXXXXX",
"XXXXXXXXXXXXXX  ooXXXXXXXXXXXXXXXXXXXXXXXXXXXX  ooXXXXXXXXXXXXXX",
"XXXXXXXXXXXXXX  ooXXXXXXXXXXXXXXXXXXXXXXXXXXXX  ooXXXXXXXXXXXXXX",
"  ..........      ........      ............      ..........    ",
"  ..........      ........      ............      ..........    ",
"ooXXXXXXXXXXXXXXXXXXXXXXXXXX  ooXXXXXXXXXXXXXXXXXXXXXXXXXXXXXX  ",
"ooXXXXXXXXXXXXXXXXXXXXXXXXXX  ooXXXXXXXXXXXXXXXXXXXXXXXXXXXXXX  ",
"ooXXXXXXXXXXXXXXXXXXXXXXXXXX..ooXXXXXXXXXXXXXXXXXXXXXXXXXXXXXX..",
"ooXXXXXXXXXXXXXXXXXXXXXXXXXX..ooXXXXXXXXXXXXXXXXXXXXXXXXXXXXXX..",
"ooXXXXXXXXXXXXXXXXXXXXXXXXXX  ooXXXXXXXXXXXXXXXXXXXXXXXXXXXXXX  ",
"ooXXXXXXXXXXXXXXXXXXXXXXXXXX  ooXXXXXXXXXXXXXXXXXXXXXXXXXXXXXX  ",
"  ..........      ........      ............      ..........    ",
"  ..........      ........      ............      ..........    ",
"XXXXXXXXXXXXXX  ooXXXXXXXXXXXXXXXXXXXXXXXXXXXX  ooXXXXXXXXXXXXXX",
"XXXXXXXXXXXXXX  ooXXXXXXXXXXXXXXXXXXXXXXXXXXXX  ooXXXXXXXXXXXXXX",
"XXXXXXXXXXXXXX..ooXXXXXXXXXXXXXXXXXXXXXXXXXXXX..ooXXXXXXXXXXXXXX",
"XXXXXXXXXXXXXX..ooXXXXXXXXXXXXXXXXXXXXXXXXXXXX..ooXXXXXXXXXXXXXX",
"XXXXXXXXXXXXXX  ooXXXXXXXXXXXXXXXXXXXXXXXXXXXX  ooXXXXXXXXXXXXXX",
"XXXXXXXXXXXXXX  ooXXXXXXXXXXXXXXXXXXXXXXXXXXXX  ooXXXXXXXXXXXXXX",
"  ..........      ........      ............      ..........    ",
"  ..........      ........      ............      ..........    ",
"ooXXXXXXXXXXXXXXXXXXXXXXXXXX  ooXXXXXXXXXXXXXXXXXXXXXXXXXXXXXX  ",
"ooXXXXXXXXXXXXXXXXXXXXXXXXXX  ooXXXXXXXXXXXXXXXXXXXXXXXXXXXXXX  ",
"ooXXXXXXXXXXXXXXXXXXXXXXXXXX..ooXXXXXXXXXXXXXXXXXXXXXXXXXXXXXX..",
"ooXXXXXXXXXXXXXXXXXXXXXXXXXX..ooXXXXXXXXXXXXXXXXXXXXXXXXXXXXXX..",
"ooXXXXXXXXXXXXXXXXXXXXXXXXXX  ooXXXXXXXXXXXXXXXXXXXXXXXXXXXXXX  ",
"ooXXXXXXXXXXXXXXXXXXXXXXXXXX  ooXXXXXXXXXXXXXXXXXXXXXXXXXXXXXX  ",
"  ..........      ........      ............      ..........    ",
"  ..........      ........      ............      ..........    ",
"XXXXXXXXXXXXXX  ooXXXXXXXXXXXXXXXXXXXXXXXXXXXX  ooXXXXXXXXXXXXXX",
"XXXXXXXXXXXXXX  ooXXXXXXXXXXXXXXXXXXXXXXXXXXXX  ooXXXXXXXXXXXXXX",
"XXXXXXXXXXXXXX..ooXXXXXXXXXXXXXXXXXXXXXXXXXXXX..ooXXXXXXXXXXXXXX",
"XXXXXXXXXXXXXX..ooXXXXXXXXXXXXXXXXXXXXXXXXXXXX..ooXXXXXXXXXXXXXX",
"XXXXXXXXXXXXXX  ooXXXXXXXXXXXXXXXXXXXXXXXXXXXX  ooXXXXXXXXXXXXXX",
"XXXXXXXXXXXXXX  ooXXXXXXXXXXXXXXXXXXXXXXXXXXXX  ooXXXXXXXXXXXXXX",
"  ..........      ........      ............      ..........    ",
"  ..........      ........      ............      ..........    ",
"ooXXXXXXXXXXXXXXXXXXXXXXXXXX  ooXXXXXXXXXXXXXXXXXXXXXXXXXXXXXX  ",
"ooXXXXXXXXXXXXXXXXXXXXXXXXXX  ooXXXXXXXXXXXXXXXXXXXXXXXXXXXXXX  ",
"ooXXXXXXXXXXXXXXXXXXXXXXXXXX..ooXXXXXXXXXXXXXXXXXXXXXXXXXXXXXX..",
"ooXXXXXXXXXXXXXXXXXXXXXXXXXX..ooXXXXXXXXXXXXXXXXXXXXXXXXXXXXXX..",
"ooXXXXXXXXXXXXXXXXXXXXXXXXXX  ooXXXXXXXXXXXXXXXXXXXXXXXXXXXXXX  ",
"ooXXXXXXXXXXXXXXXXXXXXXXXXXX  ooXXXXXXXXXXXXXXXXXXXXXXXXXXXXXX  ",
"  ..........      ........      ............      ..........    ",
"  ..........      ........      ............      ..........    ",
"XXXXXXXXXXXXXX  ooXXXXXXXXXXXXXXXXXXXXXXXXXXXX  XXXXXXXXXXXXXXXX",
"XXXXXXXXXXXXXX  ooXXXXXXXXXXXXXXXXXXXXXXXXXXXX  XXXXXXXXXXXXXXXX",
"XXXXXXXXXXXXXX..ooXXXXXXXXXXXXXXXXXXXXXXXXXXXX..XXXXXXXXXXXXXXXX",
"XXXXXXXXXXXXXX..ooXXXXXXXXXXXXXXXXXXXXXXXXXXXX..XXXXXXXXXXXXXXXX",
"XXXXXXXXXXXXXX  ooXXXXXXXXXXXXXXXXXXXXXXXXXXXX  XXXXXXXXXXXXXXXX",
"XXXXXXXXXXXXXX  ooXXXXXXXXXXXXXXXXXXXXXXXXXXXX  XXXXXXXXXXXXXXXX",
"  ..........      ........      ............      ..........    ",
"  ..........      ........      ............      ..........    "
};
