/* XPM */
static char *_3e9c9368cae4f82d78d11dc8f5f56b1KCR7EI9ziMtTAC7f[] = {
/* columns rows colors chars-per-pixel */
"32 32 7 1 ",
"  c #1B181A",
". c #351919",
"X c #5F3016",
"o c #8B502D",
"O c #8C502D",
"+ c #AC763D",
"@ c #AE763D",
/* pixels */
"+.OOX.O+XO.X@OX+.X@O@@@X.X@OX.XO",
"O.OOX.O+XO.XOOX+.O@XO@O.XO@OXXOO",
"O.O+X.OOXO..XOX@XOOXOOO.O@@OXXO+",
"OXO+X.OOOO.XXOXOO@OO@OX.O@@O.XO+",
"OXO@X.@@O@OOXOOO@@OO@@X.O@@O.O@+",
"OXO@X.@@OOOO.OXO@OOO@@X.O@OO.O@+",
"OOO@O.O@O@OO.XOOOOO@O@X.O@O@XO@O",
"@O@@O.@@@@O+..OOXO@@OO.X@@OOOO@O",
"@O@@X.O@@@O@O.@OXO@@O+.X@@O@OOOO",
"OO@+.XO@@OO@OX@O.O@@XO.O@@@@OO+O",
"XO@+.XO@@O@@OX@O.O@@XO.O@@@@O@@O",
"XO@+.X@@OO@@O.@O.O@OXO.OO@@@O+OO",
"XO@O.XO@OO@OO.+O.O@O.O.XO@@OO@OO",
"XO@O.OX@XO@OO.OO.OOX.X.OOO@O@@OX",
"XO@OXOO@XO@OO.@O O@X..XO@OOO@@OX",
"XO@OXO@@X.OOOXOO XOX.XXO@O.O@+OX",
"O@@O.@@@O.OO.XXO X.X.XO@@X.O@@OX",
"O@@O.@@O..@O.X.X..OX.XO@O..O@OO.",
"X@@X.@@O..+O.X X.OOX..O@O.X@@OO.",
"O@OX.O@O.OOO...XXOOO..X@O X+@XO.",
"O@OX.O@X.OOOX.XOXO@OX XOX O@OXO.",
"O@X.XO@XOXO@X.XOX@@OX .OX.O@OX.X",
"OOX.OOOXOXO@O.XOX@@@O. X XOOOX.X",
"XO.X@XO.OXOOO.XOO@@@OX. .XO@OX O",
"XO.O@XOXOXO+OX.XO@@OOXX.XOO@OO O",
".X.O@XOXO.XOOOX.O@@OXOX.O@X@OO..",
" .X@@XOXO XO@OX XO@@OO.O@@XOOO.O",
"X.X@O.O.X.XOOOX.XO@@OX O@OXXOXOO",
"X XOOX..O.XO@OXX.O@@O.XO+OOXXXXO",
"X X@OX..XXXO@OX+.O@@X.XO@O+OXX.o",
"X.O@OXXOXOXO@OX+.X@+..XOOOO+O..X",
"X OOX.X@X@.X@OXO.X@O.OOXOO+OX.X."
};
