/* XPM */
static char *e97e106b61a24dbfbd6d6dbef8374b25vMIqZ9PfMc9iTWq2[] = {
/* columns rows colors chars-per-pixel */
"32 32 8 1 ",
"  c #1B181A",
". c #302C2E",
"X c #5A5353",
"o c #7D7071",
"O c #9A8F8A",
"+ c #9C918C",
"@ c #CDC4B6",
"# c #CFC6B8",
/* pixels */
"XXXXoooo+######+++###++ooooooXXX",
"o+###+o+###+ooo+###+++oo++####+o",
"oo#++oXooooXXXXXXXXoooXoo+oo+++O",
"oXoXXXXXXX..  ..X.  .X.XXXXXXXXX",
"X.....XXoooo+####++ooooXXX.  .XX",
"#++oooo+++####++++++++ooo++####@",
"++++oXoooo+++##+++oo+++o++###++O",
"+oooo.XXXXXXXXXXXXXXXoooooo+###O",
"oXXXXX..Xoo++X. ...XXXXXXXXoo++O",
"...XX#ooXo+++##++#+ooX.  .XXXXXX",
"+###+++oo+##++###+++++ooo++++##O",
"##+++++oo++#####o+##++oo+####++@",
"+oo++++oXo++++++o++++++oo+++oo+O",
". .XXXooXXoooo+++o++ooooXoXXXXXX",
"X.  ..XX.XXXXXXoooooooXX.XX...Xo",
"+Xo+#+ooX.X. .  .XXXXX..Xoo++#+o",
"+o+##++Xo++##++++###+++ooo+##++o",
"#o+#++oo+##+++##++++++++oX++++oO",
"o++++ooXoooooo++++++ooooX.o++++@",
"Xo+oooX.XXXXXXX. . .XXXX. XooooO",
"XXXXXX....X+###++##++oooX.  .XXX",
"#####+++oo+##+++++++++oo+#ooo+#@",
"o++####++oo++####+++++o+##+o+#oo",
"Xoo++++++oXo+++++++++oo+++oX+##o",
"oXXooooXXX.XXXXXXXXXXXXXooX.o++O",
"X..XXX.... .  ....    ...X..XXXX",
"..Xooooo+######+oX..XXXXX.    ..",
"#++++#######+++++oXo+#ooooo++##@",
"####+++++++++++++oo+##+ooo++###@",
"++++++XXXXXXXXXXoooo+++oo++####O",
"+++XXXXX.........XXXXXXooo++++oo",
"XXX.....      .  .......XXXXXXXX"
};
