/* XPM */
static char *_3274e8524094f10c8352b3e216f51cajl6skE0hB5wPFEPN[] = {
/* columns rows colors chars-per-pixel */
"32 32 7 1 ",
"  c #1B181A",
". c #482C14",
"X c #4B2F14",
"o c #6B5022",
"O c #836931",
"+ c #866931",
"@ c #B5A74A",
/* pixels */
"o.oo+o++@+.o+oo++o.o++oo++o o+@@",
"+..oo+o++o.oo+o++..oo++@@o oo++@",
"+o.oooooo...oo++o..o.o+++. .oo++",
"o..o.oo.o +.o.ooo ...oooo...oo++",
"o...o.o. .o+.... o.o+..o.o+..oo+",
"..o+.o...  o.. +o . .oO.oo+o..oo",
".o+@+.o+.oo.o+++ ooo.. oo+@@+. .",
"oo+@@+..o+++..o..o+++o..oo++@+o.",
"+o++@+.o+@@@+...o++@@++..oo+o++o",
"++o+++ooo++@@+.oo++++@@+..oo++oo",
"o++oo+o.o+++@+.ooo+o+@@@+.ooo+..",
".o+o++.+oo+++o..o.oo+++@+o.o.. .",
"...oo+.o.oo+o.  .o..o+++o. . o+o",
"++o.oo.o+ooo.  o..o.oo+o...o++++",
"@++o..o.ooo. .o..oo...o...o+++@@",
"@@+o. o+.o..o++++++o  .o.ooo++++",
"++o. o+++. o+++@@@++.o++o.ooo+++",
"oo. o+@@+..o+o++@@@+.o+@+o.o+o++",
"o. .o+++o.o.o.o+++oo.oo+oo..o++o",
"....o++o. .o.o..ooo...oo++o..oo.",
"o.+o.++ooo .o. o+++++..o+o.....+",
".o+++oo.+++...o++@@@@+o+o.o++o o",
".o+@+.o++@@+o.o++++@@++o. +@@+o.",
" oo+o..+o+@@+ oo+++++@+o.o+@+@+.",
" o+o+o.o+o++o..o+o++++o.oo++o++o",
" .oo+...o.oo.. oo+oo+o.o++o+o+++",
". .o. ....o..o .ooooo.oOo@+o+o+o",
"+o    o+....o+o oo.o.oO o+o.o+o.",
"o+ ooo.... ..o++.o...  ..oo..o..",
". o++++o  ..o+@+o.o. o.o+.ooo...",
".oo+@@@++..o+@@@+.o.o+o.o+...o+o",
"..oo++@@++Xoo++@+oX.o@+oo++.o+@+"
};
