/* XPM */
static char *e746b505df5240ead783329700340537RbAPBJxgTujS5efU[] = {
/* columns rows colors chars-per-pixel */
"32 32 22 1 ",
"  c #39304A",
". c #39314B",
"X c #38334A",
"o c #39334D",
"O c #3E4B72",
"+ c #3F4C73",
"@ c #3F4E73",
"# c #414E74",
"$ c #414E75",
"% c #4B7FA6",
"& c #4B80A4",
"* c #4B80A6",
"= c #4D80A6",
"- c #56B4BF",
"; c #55B6BF",
": c #56B6BF",
"> c #98D3D7",
", c #98D3D9",
"< c #98D5D9",
"1 c #D7FDFB",
"2 c #D7FEFD",
"3 c #D9FFFD",
/* pixels */
";%#.%%*.+*%;%%.<*<=+.%+%O;<=+***",
"2%O.%%+.;<%>2*+;*;*..%O.&%;*+*+<",
"<*+.&2*+=+%;<*.*+***+.<#=+;**.+;",
";*++*<**..&;;**+<*<*+%;<*=2**.+*",
"<*+**;&&#.+%<2*+;*;&.=+;#&<**..*",
"*****<==3<%+;<%.*+**+*<*+*;<*+.*",
"*+@*<2*+<;%#;;;2.+*.*+;*.+*;*+.*",
"*.@*;<*<;#=&;<=,+.+**.*.%*++*+**",
"*.*;<;%;=+*<2**;*.#3*.*.&3*+*+*<",
"*+*;;;*&=*%;<**<2.*>.+*+*;<***;2",
"#2=;<%#&+**;;**=>+*;++.*;*;*=;;=",
"3<=#1#%1.+=<%<+&;.*;*++*<=*.*<2=",
"<;*+<*3<..+;*;.3>.<2*+**;2*+*;<=",
";*+*;=<;+*+*%%#<.#;<*.*<;<*.*;;*",
"#..*;+;*+**+=+<;..;;*.=;<;*+=<<*",
"+<2*=*.***;**+;*#.;<=.=*;;.+*;<*",
"<<<3*.;$*<2*#<**#*;;%+**3*.+**;=",
";;<<*@*.=;<*.;++.%*3*.+*<*+*+*<*",
"#%;<*@.;*;;*.*+*%#*<*+.*;*.*+*;*",
"+%&;**+;=2**++;*+.=*2+.**+**.=;*",
"+*+*;&;=*<=+<*<3%3+*>+.*<+*+.*<*",
"*.#*2*;=*;*o;*;<%>.=;+**;+.*+**>",
"*..%<*+*@**@**;;%;+&%++*%>.**+*>",
"*+.*;*.*+***@==;**+&3*+*<3+.*+*;",
"**+*<1.&=2*+.+=<*+.*<***;;2.+.%%",
"*+*+;>.&*<*.$;*;*+.*;2*<3;>+%..*",
"*+**;;#.*;**@<*;>+.%;<*;<%;#*..*",
"****%;.++=2*.;**;*#=*;**;%%.*+.*",
";**+%;.%**<***+*;=*+*;#%<2*+*+.*",
"3%.+%%.%*+;3*.<****.*>+%;<***+.*",
"<*..%;#+*+;<*.;+**+.*;.=*;**.*+*",
";*..=;%+@*=;*+*.*<*..*.=*;2*.***"
};
